<svg width="27" height="17" viewBox="0 0 27 17" fill="none" xmlns="http://www.w3.org/2000/svg">
<path d="M7.83279 0C8.6101 0 9.3276 0.0597923 9.98532 0.239169C10.643 0.358754 11.1812 0.597923 11.6595 0.896885C12.1378 1.19585 12.4966 1.61439 12.7358 2.15252C12.9749 2.69065 13.0945 3.34837 13.0945 4.06588C13.0945 4.90297 12.9151 5.62048 12.4966 6.15861C12.1378 6.69674 11.5399 7.17508 10.8224 7.53383C11.8389 7.83279 12.6162 8.37092 13.0945 9.08843C13.5729 9.80594 13.8718 10.7028 13.8718 11.7193C13.8718 12.5564 13.6924 13.2739 13.3935 13.8718C13.0945 14.4697 12.6162 15.0079 12.078 15.3666C11.5399 15.7254 10.8822 16.0243 10.1647 16.2037C9.44719 16.3831 8.72968 16.5027 8.01217 16.5027H0V0H7.83279ZM7.35446 6.69674C8.01217 6.69674 8.5503 6.51736 8.96885 6.2184C9.38739 5.91944 9.56677 5.38131 9.56677 4.72359C9.56677 4.36484 9.50698 4.00609 9.38739 3.76692C9.26781 3.52775 9.08843 3.34837 8.84926 3.16899C8.61009 3.04941 8.37092 2.92982 8.07196 2.87003C7.773 2.81024 7.47404 2.81024 7.11529 2.81024H3.64733V6.69674H7.35446ZM7.53383 13.7522C7.89259 13.7522 8.25134 13.6924 8.5503 13.6326C8.84926 13.5729 9.14822 13.4533 9.38739 13.2739C9.62656 13.0945 9.80594 12.9151 9.98532 12.6162C10.1049 12.3172 10.2245 11.9585 10.2245 11.5399C10.2245 10.7028 9.98532 10.1049 9.50698 9.68636C9.02864 9.3276 8.37092 9.14822 7.59362 9.14822H3.64733V13.7522H7.53383ZM19.0737 13.6924C19.5521 14.1708 20.2696 14.4099 21.2263 14.4099C21.884 14.4099 22.4819 14.2306 22.9603 13.9316C23.4386 13.5729 23.7376 13.2141 23.8571 12.8553H26.787C26.3086 14.2904 25.5911 15.3068 24.6344 15.9645C23.6778 16.5625 22.5417 16.9212 21.1665 16.9212C20.2098 16.9212 19.3727 16.7418 18.5954 16.4429C17.8181 16.1439 17.2202 15.7254 16.6821 15.1275C16.1439 14.5893 15.7254 13.9316 15.4862 13.1543C15.1872 12.377 15.0677 11.5399 15.0677 10.5832C15.0677 9.68636 15.1872 8.84926 15.4862 8.07196C15.7852 7.29466 16.2037 6.63695 16.7418 6.03902C17.28 5.50089 17.9377 5.02255 18.6552 4.72359C19.4325 4.42463 20.2098 4.24525 21.1665 4.24525C22.183 4.24525 23.0798 4.42463 23.8571 4.84318C24.6344 5.26172 25.2324 5.74006 25.7107 6.45757C26.189 7.11529 26.5478 7.89259 26.787 8.72968C26.9065 9.56677 26.9663 10.4039 26.9065 11.3605H18.2367C18.2367 12.3172 18.5954 13.2141 19.0737 13.6924ZM22.8407 7.41425C22.4221 6.9957 21.7644 6.75653 20.9871 6.75653C20.449 6.75653 20.0304 6.87612 19.6717 7.05549C19.3129 7.23487 19.0738 7.47404 18.8346 7.71321C18.5954 7.95238 18.4758 8.25134 18.416 8.5503C18.3562 8.84926 18.2965 9.08843 18.2965 9.3276H23.6778C23.5582 8.43072 23.2592 7.83279 22.8407 7.41425ZM17.5789 1.13605H24.2757V2.75045H17.5789V1.13605Z" fill="#C79288"/>
</svg>
