<svg width="27" height="27" viewBox="0 0 27 27" fill="none" xmlns="http://www.w3.org/2000/svg">
<path d="M13.465 0C6.03232 0 0 6.03232 0 13.465C0 20.8977 6.03232 26.93 13.465 26.93C20.8708 26.93 26.93 20.8977 26.93 13.465C26.93 6.03232 20.8708 0 13.465 0ZM22.3519 6.1939C23.9677 8.15979 24.9102 10.6374 24.9641 13.3573C24.5871 13.2765 20.79 12.5225 16.9659 12.9803C16.8851 12.7918 16.8043 12.5763 16.7235 12.3878C16.4812 11.8223 16.2388 11.2567 15.9695 10.7181C20.1706 9.02155 22.1095 6.51706 22.3519 6.1939ZM13.465 1.99282C16.3734 1.99282 19.0664 3.09695 21.0862 4.87433C20.8708 5.17056 19.1472 7.48654 15.0539 9.02155C13.1688 5.54758 11.0682 2.71993 10.772 2.28905C11.6338 2.10054 12.5225 1.99282 13.465 1.99282ZM8.56374 3.07002C8.85997 3.47397 10.9067 6.32855 12.8187 9.72173C7.43268 11.149 2.693 11.1221 2.18133 11.1221C2.9623 7.5404 5.35907 4.5781 8.56374 3.07002ZM1.96589 13.4919C1.96589 13.3842 1.96589 13.2496 1.96589 13.1418C2.45063 13.1688 8.05207 13.2226 13.7882 11.4991C14.1113 12.1454 14.4345 12.7918 14.7307 13.465C14.5961 13.5189 14.4345 13.5458 14.2729 13.5997C8.3483 15.5117 5.19749 20.7361 4.92819 21.167C3.07002 19.1203 1.96589 16.4273 1.96589 13.4919ZM13.465 24.9641C10.7989 24.9641 8.3483 24.0485 6.40934 22.5404C6.62478 22.1095 8.94076 17.6122 15.4309 15.3501C15.4578 15.3232 15.4848 15.3232 15.5117 15.3232C17.1275 19.5243 17.8007 23.0252 17.9623 24.0485C16.5889 24.641 15.0539 24.9641 13.465 24.9641ZM19.8743 22.9982C19.7666 22.298 19.1472 18.9318 17.6392 14.8115C21.2478 14.246 24.3986 15.1885 24.8025 15.2962C24.2909 18.5009 22.4596 21.2747 19.8743 22.9982Z" fill="#C79288"/>
</svg>
