<svg width="27" height="27" viewBox="0 0 27 27" fill="none" xmlns="http://www.w3.org/2000/svg">
<path d="M6.05926 26.93H0.33662V8.92056H6.05926V26.93ZM3.19794 6.39588C1.3465 6.39588 0 5.04937 0 3.19794C0 1.3465 1.51482 0 3.19794 0C5.04938 0 6.39588 1.3465 6.39588 3.19794C6.39588 5.04937 5.04938 6.39588 3.19794 6.39588ZM26.93 26.93H21.2074V17.1679C21.2074 14.3066 20.0292 13.465 18.3461 13.465C16.6629 13.465 14.9798 14.8115 14.9798 17.3362V26.93H9.25719V8.92056H14.6432V11.4453C15.1481 10.2671 17.1679 8.41562 20.0292 8.41562C23.2271 8.41562 26.5934 10.2671 26.5934 15.8214V26.93H26.93Z" fill="#C79288"/>
</svg>
